<svg width="237" height="44" viewBox="0 0 237 44" fill="none" xmlns="http://www.w3.org/2000/svg">
<path d="M1 16.6194V37.3656C1 39.3804 2.07587 41.2419 3.82169 42.2477C4.67717 42.7406 5.64714 43 6.63445 43H214.076C215.305 43 216.512 42.6764 217.577 42.0618L232.501 33.4436C234.666 32.193 236 29.8823 236 27.3817V3.90592C236 2.8674 235.446 1.90782 234.546 1.38885C234.105 1.13411 233.604 1 233.094 1H22.9331C21.7046 1 20.4978 1.3233 19.4338 1.93743L4.50069 10.5568C2.33449 11.8072 1 14.1183 1 16.6194Z" stroke="url(#paint0_linear_1_42)" stroke-width="2"/>
<path d="M60.5281 27.112C59.8095 27.112 59.1748 26.958 58.6241 26.65C58.0828 26.342 57.6628 25.908 57.3641 25.348C57.0655 24.7787 56.9161 24.1253 56.9161 23.388V20.812C56.9161 20.0747 57.0655 19.426 57.3641 18.866C57.6721 18.2967 58.1015 17.858 58.6521 17.55C59.2121 17.242 59.8561 17.088 60.5841 17.088H62.0681C62.7681 17.088 63.3841 17.2373 63.9161 17.536C64.4481 17.8347 64.8588 18.2547 65.1481 18.796C65.4468 19.328 65.5961 19.9487 65.5961 20.658H63.6921C63.6921 20.098 63.5428 19.65 63.2441 19.314C62.9455 18.9687 62.5535 18.796 62.0681 18.796H60.5841C60.0615 18.796 59.6415 18.992 59.3241 19.384C59.0068 19.7667 58.8481 20.2707 58.8481 20.896V23.304C58.8481 23.9293 59.0021 24.438 59.3101 24.83C59.6181 25.2127 60.0241 25.404 60.5281 25.404H62.0401C62.5348 25.404 62.9361 25.2127 63.2441 24.83C63.5615 24.4473 63.7201 23.9433 63.7201 23.318H65.6241C65.6241 24.074 65.4748 24.7413 65.1761 25.32C64.8775 25.8893 64.4575 26.3327 63.9161 26.65C63.3748 26.958 62.7495 27.112 62.0401 27.112H60.5281ZM70.2928 27.112C69.5555 27.112 68.9021 26.958 68.3328 26.65C67.7728 26.3327 67.3341 25.894 67.0168 25.334C66.7088 24.7647 66.5548 24.1067 66.5548 23.36V20.84C66.5548 20.0933 66.7088 19.44 67.0168 18.88C67.3341 18.3107 67.7728 17.872 68.3328 17.564C68.9021 17.2467 69.5555 17.088 70.2928 17.088H71.7768C72.5141 17.088 73.1628 17.2467 73.7228 17.564C74.2921 17.872 74.7308 18.3107 75.0388 18.88C75.3561 19.44 75.5148 20.0933 75.5148 20.84V23.36C75.5148 24.1067 75.3561 24.7647 75.0388 25.334C74.7308 25.894 74.2921 26.3327 73.7228 26.65C73.1628 26.958 72.5141 27.112 71.7768 27.112H70.2928ZM71.7768 25.404C72.3181 25.404 72.7521 25.208 73.0788 24.816C73.4148 24.424 73.5828 23.9107 73.5828 23.276V20.924C73.5828 20.2893 73.4148 19.776 73.0788 19.384C72.7521 18.992 72.3181 18.796 71.7768 18.796H70.2928C69.7515 18.796 69.3128 18.992 68.9768 19.384C68.6501 19.776 68.4868 20.2893 68.4868 20.924V23.276C68.4868 23.9107 68.6501 24.424 68.9768 24.816C69.3128 25.208 69.7515 25.404 70.2928 25.404H71.7768ZM76.9657 17.2H78.6877L83.3917 23.864V17.2H85.2817V27H83.5597L78.8557 20.336V27H76.9657V17.2ZM87.0145 17.2H88.7365L93.4405 23.864V17.2H95.3305V27H93.6085L88.9045 20.336V27H87.0145V17.2ZM98.4213 27C98.02 27 97.6933 26.8787 97.4413 26.636C97.1893 26.3933 97.0633 26.076 97.0633 25.684V17.2H104.539V18.88H98.9953V21.148H104.119V22.828H98.9953V25.32H104.539V27H98.4213ZM109.104 27.112C108.386 27.112 107.751 26.958 107.2 26.65C106.659 26.342 106.239 25.908 105.94 25.348C105.642 24.7787 105.492 24.1253 105.492 23.388V20.812C105.492 20.0747 105.642 19.426 105.94 18.866C106.248 18.2967 106.678 17.858 107.228 17.55C107.788 17.242 108.432 17.088 109.16 17.088H110.644C111.344 17.088 111.96 17.2373 112.492 17.536C113.024 17.8347 113.435 18.2547 113.724 18.796C114.023 19.328 114.172 19.9487 114.172 20.658H112.268C112.268 20.098 112.119 19.65 111.82 19.314C111.522 18.9687 111.13 18.796 110.644 18.796H109.16C108.638 18.796 108.218 18.992 107.9 19.384C107.583 19.7667 107.424 20.2707 107.424 20.896V23.304C107.424 23.9293 107.578 24.438 107.886 24.83C108.194 25.2127 108.6 25.404 109.104 25.404H110.616C111.111 25.404 111.512 25.2127 111.82 24.83C112.138 24.4473 112.296 23.9433 112.296 23.318H114.2C114.2 24.074 114.051 24.7413 113.752 25.32C113.454 25.8893 113.034 26.3327 112.492 26.65C111.951 26.958 111.326 27.112 110.616 27.112H109.104ZM117.655 18.88H114.547V17.2H122.695V18.88H119.587V27H117.655V18.88ZM130.108 27C129.791 27 129.525 26.9207 129.31 26.762C129.096 26.6033 128.946 26.3187 128.862 25.908L127.126 17.2H129.086L130.29 24.158H130.318L132.348 17.718H133.048C133.282 17.718 133.482 17.7787 133.65 17.9C133.828 18.0213 133.963 18.2407 134.056 18.558L135.764 24.144H135.792L136.996 17.2H138.956L137.206 25.908C137.132 26.2813 136.992 26.5567 136.786 26.734C136.59 26.9113 136.32 27 135.974 27H135.162L133.076 20.28H133.048L130.92 27H130.108ZM145.09 24.718H141.422L140.554 27H138.538L142.374 17.2H143.242C143.849 17.2 144.26 17.48 144.474 18.04L147.96 27H145.944L145.09 24.718ZM141.94 23.094H144.572L143.27 19.566H143.256L141.94 23.094ZM150.156 27C149.745 27 149.414 26.8833 149.162 26.65C148.919 26.4073 148.798 26.09 148.798 25.698V17.2H150.73V25.32H156.05V27H150.156ZM158.386 27C157.975 27 157.644 26.8833 157.392 26.65C157.149 26.4073 157.028 26.09 157.028 25.698V17.2H158.96V25.32H164.28V27H158.386ZM166.617 27C166.215 27 165.889 26.8787 165.637 26.636C165.385 26.3933 165.259 26.076 165.259 25.684V17.2H172.735V18.88H167.191V21.148H172.315V22.828H167.191V25.32H172.735V27H166.617ZM176.458 18.88H173.35V17.2H181.498V18.88H178.39V27H176.458V18.88Z" fill="url(#paint1_linear_1_42)"/>
<defs>
<linearGradient id="paint0_linear_1_42" x1="237" y1="22" x2="0" y2="22" gradientUnits="userSpaceOnUse">
<stop stop-color="#0ED4FF"/>
<stop offset="0.5" stop-color="#9788FF"/>
<stop offset="1" stop-color="white"/>
</linearGradient>
<linearGradient id="paint1_linear_1_42" x1="56" y1="22" x2="182" y2="22" gradientUnits="userSpaceOnUse">
<stop stop-color="white"/>
<stop offset="0.435" stop-color="#998BFF"/>
<stop offset="1" stop-color="#0ED4FF"/>
</linearGradient>
</defs>
</svg>
